<svg width="50" height="52" viewBox="0 0 50 52" fill="none" xmlns="http://www.w3.org/2000/svg">
<path d="M1 25C1 11.7452 11.7452 1 25 1V1C38.2548 1 49 11.7452 49 25V25C49 38.2548 38.2548 49 25 49V49C11.7452 49 1 38.2548 1 25V25Z" fill="#01A3D4"/>
<path d="M0 25C0 11.1929 11.1929 0 25 0C38.8071 0 50 11.1929 50 25H48C48 12.2975 37.7025 2 25 2C12.2975 2 2 12.2975 2 25H0ZM50 27C50 40.8071 38.8071 52 25 52C11.1929 52 0 40.8071 0 27L2 25C2 36.598 12.2975 46 25 46C37.7025 46 48 36.598 48 25L50 27ZM25 52C11.1929 52 0 40.8071 0 27V25C0 11.1929 11.1929 0 25 0V2C12.2975 2 2 12.2975 2 25C2 36.598 12.2975 46 25 46V52ZM25 0C38.8071 0 50 11.1929 50 25V27C50 40.8071 38.8071 52 25 52V46C37.7025 46 48 36.598 48 25C48 12.2975 37.7025 2 25 2V0Z" fill="#027AA2"/>
<path d="M29.0535 17.6956C30.1796 17.7972 31.1304 18.1756 31.8043 18.8403C32.5519 19.588 32.9396 20.6772 32.9396 21.9787V22.5326C32.9396 22.6345 32.857 22.7172 32.755 22.7172H17.2474C17.1454 22.7172 17.0627 22.6345 17.0627 22.5326V21.9787C17.0627 19.8622 18.0823 18.4339 19.8441 17.9056C19.959 17.8712 20.072 17.9593 20.072 18.0792V19.431C20.072 19.8095 20.3858 20.1233 20.7643 20.1233C20.8289 20.1233 20.8935 20.1049 20.9489 20.0864V16.8095C20.9489 16.431 21.2627 16.1172 21.6412 16.1172C22.0289 16.1172 22.3335 16.431 22.3335 16.8095V17.6587H26.6073C26.7093 17.6587 26.7919 17.7414 26.7919 17.8433V19.431C26.7919 19.8095 27.0966 20.1233 27.4843 20.1233C27.5416 20.1233 27.5917 20.1088 27.6474 20.0926C27.6544 20.0906 27.6616 20.0885 27.6689 20.0864V16.8095C27.6689 16.431 27.9735 16.1172 28.3612 16.1172C28.7396 16.1172 29.0535 16.431 29.0535 16.8095V17.6956Z" fill="white"/>
<path fill-rule="evenodd" clip-rule="evenodd" d="M21.484 33.8868C18.7148 33.8868 17.0625 32.2437 17.0625 29.4929V24.2868C17.0625 24.1848 17.1452 24.1022 17.2471 24.1022H32.7548C32.8568 24.1022 32.9394 24.1848 32.9394 24.2868V29.5576C32.9394 32.2714 31.2871 33.8868 28.5179 33.8868H21.484ZM23.0127 28.4563C22.7431 28.1849 22.3028 28.1849 22.0333 28.4545C21.7619 28.7249 21.7619 29.1634 22.0314 29.4339L23.6514 31.0566C23.7815 31.1877 23.9579 31.2606 24.1415 31.2606C24.3252 31.2606 24.5016 31.1877 24.6308 31.0576L27.9705 27.7169C28.2409 27.4465 28.2409 27.0089 27.9705 26.7385C27.6991 26.468 27.2606 26.4689 26.9911 26.7385L24.1415 29.5889L23.0127 28.4563Z" fill="white"/>
</svg>
