<svg width="51" height="52" viewBox="0 0 51 52" fill="none" xmlns="http://www.w3.org/2000/svg">
<path d="M1.33594 25C1.33594 11.7452 12.0811 1 25.3359 1V1C38.5908 1 49.3359 11.7452 49.3359 25V25C49.3359 38.2548 38.5908 49 25.3359 49V49C12.0811 49 1.33594 38.2548 1.33594 25V25Z" fill="#ACBF01"/>
<path d="M0.335938 25C0.335938 11.1929 11.5288 0 25.3359 0C39.1431 0 50.3359 11.1929 50.3359 25H48.3359C48.3359 12.2975 38.0385 2 25.3359 2C12.6334 2 2.33594 12.2975 2.33594 25H0.335938ZM50.3359 27C50.3359 40.8071 39.1431 52 25.3359 52C11.5288 52 0.335938 40.8071 0.335938 27L2.33594 25C2.33594 36.598 12.6334 46 25.3359 46C38.0385 46 48.3359 36.598 48.3359 25L50.3359 27ZM25.3359 52C11.5288 52 0.335938 40.8071 0.335938 27V25C0.335938 11.1929 11.5288 0 25.3359 0V2C12.6334 2 2.33594 12.2975 2.33594 25C2.33594 36.598 12.6334 46 25.3359 46V52ZM25.3359 0C39.1431 0 50.3359 11.1929 50.3359 25V27C50.3359 40.8071 39.1431 52 25.3359 52V46C38.0385 46 48.3359 36.598 48.3359 25C48.3359 12.2975 38.0385 2 25.3359 2V0Z" fill="#768506"/>
<path fill-rule="evenodd" clip-rule="evenodd" d="M20.9049 33.8484H29.7689C30.4449 33.8575 31.1159 33.7307 31.742 33.4756C32.3682 33.2205 32.9367 32.8423 33.4139 32.3634C33.9616 31.7968 34.3915 31.1272 34.6788 30.3935C34.9662 29.6597 35.1052 28.8762 35.0879 28.0884V21.9114C35.1319 21.1793 35.0272 20.4458 34.7803 19.7551C34.5335 19.0645 34.1494 18.4309 33.6513 17.8925C33.1532 17.3541 32.5513 16.9221 31.8819 16.6223C31.2124 16.3226 30.4893 16.1614 29.7559 16.1484H20.9199C20.1865 16.1614 19.4634 16.3226 18.7939 16.6223C18.1245 16.9221 17.5226 17.3541 17.0245 17.8925C16.5264 18.4309 16.1423 19.0645 15.8954 19.7551C15.6486 20.4458 15.5439 21.1793 15.5879 21.9114V28.0884C15.5701 28.8769 15.7088 29.6611 15.9962 30.3956C16.2835 31.1301 16.7137 31.8003 17.2619 32.3674C17.7392 32.8454 18.3075 33.2228 18.9333 33.4771C19.559 33.7315 20.2295 33.8578 20.9049 33.8484ZM29.7669 32.3484H20.9179L20.9069 32.3444C20.4281 32.3525 19.9526 32.2644 19.5085 32.0852C19.0645 31.906 18.661 31.6395 18.3219 31.3014C17.9143 30.8738 17.5954 30.3697 17.3836 29.8183C17.1718 29.2668 17.0713 28.6789 17.0879 28.0884V21.9114C17.0879 21.6469 17.1064 21.3902 17.1421 21.1425L22.8221 25.7221L22.8263 25.7255C24.3178 26.9105 26.4313 26.9106 27.9227 25.7255L33.5363 21.1609C33.5703 21.4029 33.5879 21.6535 33.5879 21.9114V28.0884C33.605 28.6796 33.5047 29.2682 33.2929 29.8204C33.0811 30.3726 32.762 30.8773 32.3539 31.3054C32.0146 31.6437 31.6107 31.9104 31.1663 32.0895C30.7219 32.2687 30.246 32.3567 29.7669 32.3484ZM33.0453 19.6268L26.9865 24.5535C26.0422 25.3015 24.7054 25.3012 23.7614 24.5526L17.637 19.6147C18.2902 18.406 19.4762 17.6484 20.9199 17.6484H29.7559C31.2044 17.6484 32.3934 18.4111 33.0453 19.6268Z" fill="white"/>
</svg>
