<svg width="50" height="53" viewBox="0 0 50 53" fill="none" xmlns="http://www.w3.org/2000/svg">
<path d="M1 25.3594C1 12.1045 11.7452 1.35938 25 1.35938V1.35938C38.2548 1.35938 49 12.1045 49 25.3594V25.3594C49 38.6142 38.2548 49.3594 25 49.3594V49.3594C11.7452 49.3594 1 38.6142 1 25.3594V25.3594Z" fill="#ACBF01"/>
<path d="M0 25.3594C0 11.5523 11.1929 0.359375 25 0.359375C38.8071 0.359375 50 11.5523 50 25.3594H48C48 12.6568 37.7025 2.35938 25 2.35938C12.2975 2.35938 2 12.6568 2 25.3594H0ZM50 27.3594C50 41.1665 38.8071 52.3594 25 52.3594C11.1929 52.3594 0 41.1665 0 27.3594L2 25.3594C2 36.9574 12.2975 46.3594 25 46.3594C37.7025 46.3594 48 36.9574 48 25.3594L50 27.3594ZM25 52.3594C11.1929 52.3594 0 41.1665 0 27.3594V25.3594C0 11.5523 11.1929 0.359375 25 0.359375V2.35938C12.2975 2.35938 2 12.6568 2 25.3594C2 36.9574 12.2975 46.3594 25 46.3594V52.3594ZM25 0.359375C38.8071 0.359375 50 11.5523 50 25.3594V27.3594C50 41.1665 38.8071 52.3594 25 52.3594V46.3594C37.7025 46.3594 48 36.9574 48 25.3594C48 12.6568 37.7025 2.35938 25 2.35938V0.359375Z" fill="#768506"/>
<path fill-rule="evenodd" clip-rule="evenodd" d="M17.499 20.1978L23.374 24.9768C24.379 25.7488 25.689 25.7548 26.62 24.9818L32.496 20.1878C32.739 20.6498 32.896 21.1758 32.956 21.7478L27.574 26.1388C26.845 26.7478 25.949 27.0508 25.039 27.0508C24.137 27.0508 23.222 26.7528 22.442 26.1528L17.042 21.7598C17.102 21.1878 17.257 20.6608 17.499 20.1978ZM34.5 22.2558C34.5 21.9458 34.468 21.6498 34.42 21.3598C34.389 21.1428 34.341 20.9358 34.288 20.7288C34.283 20.7098 34.281 20.6898 34.276 20.6708L34.273 20.6738C34.134 20.1528 33.945 19.6588 33.682 19.2188L33.689 19.2138C33.679 19.1968 33.666 19.1808 33.655 19.1638C33.649 19.1538 33.641 19.1448 33.635 19.1338C33.469 18.8658 33.278 18.6198 33.071 18.3898C33.051 18.3678 33.033 18.3448 33.013 18.3238C32.796 18.0918 32.561 17.8818 32.306 17.6968C32.288 17.6838 32.268 17.6718 32.25 17.6588C31.998 17.4808 31.732 17.3258 31.449 17.1978C31.435 17.1918 31.422 17.1838 31.408 17.1768C31.129 17.0548 30.835 16.9618 30.531 16.8928C30.471 16.8788 30.41 16.8678 30.348 16.8558C30.044 16.7988 29.734 16.7598 29.41 16.7588C29.406 16.7588 29.403 16.7578 29.4 16.7578H20.6C20.597 16.7578 20.594 16.7588 20.591 16.7588C20.25 16.7598 19.924 16.8008 19.608 16.8608C19.574 16.8678 19.54 16.8728 19.506 16.8808C18.122 17.1738 16.99 18.0098 16.288 19.2128L16.311 19.2318C16.049 19.6718 15.861 20.1658 15.723 20.6868L15.713 20.6788C15.7 20.7318 15.693 20.7888 15.68 20.8418C15.643 21.0038 15.607 21.1638 15.582 21.3308C15.534 21.6298 15.5 21.9348 15.5 22.2558V28.4578L15.501 28.4638C15.501 28.8658 15.539 29.2538 15.609 29.6268C15.616 29.6638 15.631 29.6978 15.639 29.7348C15.707 30.0668 15.795 30.3878 15.913 30.6898C15.981 30.8668 16.075 31.0248 16.158 31.1908C16.229 31.3288 16.288 31.4748 16.369 31.6048C16.541 31.8858 16.739 32.1398 16.955 32.3768C16.957 32.3788 16.958 32.3818 16.961 32.3838C17.01 32.4388 17.048 32.5058 17.1 32.5578C18 33.4578 19.2 33.9578 20.6 33.9578H29.4C29.73 33.9578 30.053 33.9248 30.368 33.8618C31.294 33.6918 32.099 33.2678 32.757 32.6668C32.803 32.6278 32.855 32.5988 32.9 32.5578C32.917 32.5408 32.929 32.5188 32.945 32.5018C33.913 31.5198 34.499 30.1128 34.5 28.4618V22.2558Z" fill="white"/>
</svg>
