<svg width="50" height="52" viewBox="0 0 50 52" fill="none" xmlns="http://www.w3.org/2000/svg">
<path d="M1 25C1 11.7452 11.7452 1 25 1V1C38.2548 1 49 11.7452 49 25V25C49 38.2548 38.2548 49 25 49V49C11.7452 49 1 38.2548 1 25V25Z" fill="#FFA516"/>
<path d="M0 25C0 11.1929 11.1929 0 25 0C38.8071 0 50 11.1929 50 25H48C48 12.2975 37.7025 2 25 2C12.2975 2 2 12.2975 2 25H0ZM50 27C50 40.8071 38.8071 52 25 52C11.1929 52 0 40.8071 0 27L2 25C2 36.598 12.2975 46 25 46C37.7025 46 48 36.598 48 25L50 27ZM25 52C11.1929 52 0 40.8071 0 27V25C0 11.1929 11.1929 0 25 0V2C12.2975 2 2 12.2975 2 25C2 36.598 12.2975 46 25 46V52ZM25 0C38.8071 0 50 11.1929 50 25V27C50 40.8071 38.8071 52 25 52V46C37.7025 46 48 36.598 48 25C48 12.2975 37.7025 2 25 2V0Z" fill="#DD6002"/>
<path fill-rule="evenodd" clip-rule="evenodd" d="M25 15.25C29.549 15.25 33.25 18.979 33.25 23.563C33.25 29.198 26.794 34.75 25 34.75C23.206 34.75 16.75 29.198 16.75 23.563C16.75 18.979 20.451 15.25 25 15.25ZM25 16.75C21.278 16.75 18.25 19.807 18.25 23.563C18.25 28.342 23.874 32.998 25 33.246C26.126 32.997 31.75 28.341 31.75 23.563C31.75 19.807 28.722 16.75 25 16.75ZM25.001 20.25C26.793 20.25 28.251 21.708 28.251 23.501C28.251 25.293 26.793 26.75 25.001 26.75C23.209 26.75 21.751 25.293 21.751 23.501C21.751 21.708 23.209 20.25 25.001 20.25ZM25.001 21.75C24.036 21.75 23.251 22.535 23.251 23.501C23.251 24.466 24.036 25.25 25.001 25.25C25.966 25.25 26.751 24.466 26.751 23.501C26.751 22.535 25.966 21.75 25.001 21.75Z" fill="white"/>
</svg>
