<svg width="50" height="52" viewBox="0 0 50 52" fill="none" xmlns="http://www.w3.org/2000/svg">
<path d="M1 25C1 11.7452 11.7452 1 25 1V1C38.2548 1 49 11.7452 49 25V25C49 38.2548 38.2548 49 25 49V49C11.7452 49 1 38.2548 1 25V25Z" fill="#01A3D4"/>
<path d="M0 25C0 11.1929 11.1929 0 25 0C38.8071 0 50 11.1929 50 25H48C48 12.2975 37.7025 2 25 2C12.2975 2 2 12.2975 2 25H0ZM50 27C50 40.8071 38.8071 52 25 52C11.1929 52 0 40.8071 0 27L2 25C2 36.598 12.2975 46 25 46C37.7025 46 48 36.598 48 25L50 27ZM25 52C11.1929 52 0 40.8071 0 27V25C0 11.1929 11.1929 0 25 0V2C12.2975 2 2 12.2975 2 25C2 36.598 12.2975 46 25 46V52ZM25 0C38.8071 0 50 11.1929 50 25V27C50 40.8071 38.8071 52 25 52V46C37.7025 46 48 36.598 48 25C48 12.2975 37.7025 2 25 2V0Z" fill="#027AA2"/>
<path fill-rule="evenodd" clip-rule="evenodd" d="M24.5317 25.4724C28.5208 29.4604 29.4258 24.8467 31.9656 27.3848C34.4143 29.8328 35.8216 30.3232 32.7192 33.4247C32.3306 33.737 29.8616 37.4943 21.1846 28.8197C12.5065 20.144 16.2616 17.6724 16.574 17.2839C19.6839 14.1738 20.1659 15.5894 22.6145 18.0373C25.1544 20.5765 20.5427 21.4844 24.5317 25.4724Z" fill="white"/>
</svg>
