<svg width="50" height="52" viewBox="0 0 50 52" fill="none" xmlns="http://www.w3.org/2000/svg">
<path d="M1 25C1 11.7452 11.7452 1 25 1V1C38.2548 1 49 11.7452 49 25V25C49 38.2548 38.2548 49 25 49V49C11.7452 49 1 38.2548 1 25V25Z" fill="#01A3D4"/>
<path d="M0 25C0 11.1929 11.1929 0 25 0C38.8071 0 50 11.1929 50 25H48C48 12.2975 37.7025 2 25 2C12.2975 2 2 12.2975 2 25H0ZM50 27C50 40.8071 38.8071 52 25 52C11.1929 52 0 40.8071 0 27L2 25C2 36.598 12.2975 46 25 46C37.7025 46 48 36.598 48 25L50 27ZM25 52C11.1929 52 0 40.8071 0 27V25C0 11.1929 11.1929 0 25 0V2C12.2975 2 2 12.2975 2 25C2 36.598 12.2975 46 25 46V52ZM25 0C38.8071 0 50 11.1929 50 25V27C50 40.8071 38.8071 52 25 52V46C37.7025 46 48 36.598 48 25C48 12.2975 37.7025 2 25 2V0Z" fill="#027AA2"/>
<path fill-rule="evenodd" clip-rule="evenodd" d="M28.3097 25.613H21.6888C21.2748 25.613 20.9388 25.277 20.9388 24.863C20.9388 24.449 21.2748 24.113 21.6888 24.113H28.3097C28.7237 24.113 29.0597 24.449 29.0597 24.863C29.0597 25.277 28.7237 25.613 28.3097 25.613ZM28.3097 29.669H21.6888C21.2748 29.669 20.9388 29.333 20.9388 28.919C20.9388 28.505 21.2748 28.169 21.6888 28.169H28.3097C28.7237 28.169 29.0597 28.505 29.0597 28.919C29.0597 29.333 28.7237 29.669 28.3097 29.669ZM21.6898 20.066H24.2157C24.6297 20.066 24.9657 20.402 24.9657 20.816C24.9657 21.23 24.6297 21.566 24.2157 21.566H21.6898C21.2758 21.566 20.9397 21.23 20.9397 20.816C20.9397 20.402 21.2758 20.066 21.6898 20.066ZM29.0367 15.5H20.9628C18.4158 15.5 16.3438 17.572 16.3438 20.12V29.88C16.3438 32.427 18.4158 34.5 20.9628 34.5H29.0367C31.5837 34.5 33.6567 32.427 33.6567 29.88V20.12C33.6567 17.572 31.5837 15.5 29.0367 15.5Z" fill="white"/>
</svg>
