<svg width="50" height="52" viewBox="0 0 50 52" fill="none" xmlns="http://www.w3.org/2000/svg">
<path d="M1 25C1 11.7452 11.7452 1 25 1V1C38.2548 1 49 11.7452 49 25V25C49 38.2548 38.2548 49 25 49V49C11.7452 49 1 38.2548 1 25V25Z" fill="#01A3D4"/>
<path d="M0 25C0 11.1929 11.1929 0 25 0C38.8071 0 50 11.1929 50 25H48C48 12.2975 37.7025 2 25 2C12.2975 2 2 12.2975 2 25H0ZM50 27C50 40.8071 38.8071 52 25 52C11.1929 52 0 40.8071 0 27L2 25C2 36.598 12.2975 46 25 46C37.7025 46 48 36.598 48 25L50 27ZM25 52C11.1929 52 0 40.8071 0 27V25C0 11.1929 11.1929 0 25 0V2C12.2975 2 2 12.2975 2 25C2 36.598 12.2975 46 25 46V52ZM25 0C38.8071 0 50 11.1929 50 25V27C50 40.8071 38.8071 52 25 52V46C37.7025 46 48 36.598 48 25C48 12.2975 37.7025 2 25 2V0Z" fill="#027AA2"/>
<path fill-rule="evenodd" clip-rule="evenodd" d="M31.5109 15.8346H33.232C34.3635 15.8346 35.2892 16.7603 35.2892 17.8918V18.5843C35.2892 20.8197 33.6229 22.678 31.4698 22.9866C31.1818 25.5786 29.3783 27.7043 26.9578 28.4655L27.8355 30.742H22.1646L23.0423 28.4655C20.6287 27.7112 18.8184 25.5786 18.5303 22.9866C16.3704 22.678 14.7109 20.8197 14.7109 18.5843V17.8918C14.7109 16.7603 15.6298 15.8346 16.7681 15.8346H18.4824V15.7386C18.4824 14.9843 19.0995 14.3672 19.8538 14.3672H30.1395C30.9006 14.3672 31.5109 14.9843 31.5109 15.7386V15.8346ZM16.0824 18.5843C16.0824 20.0517 17.1109 21.2723 18.4824 21.5878V17.2061H16.7681C16.3909 17.2061 16.0824 17.5146 16.0824 17.8918V18.5843ZM27.0812 22.3626L28.1509 21.3135C28.5623 20.9158 28.3361 20.2164 27.7669 20.134L26.2858 19.9146L25.6206 18.5706C25.3669 18.0563 24.6332 18.0563 24.3795 18.5706L23.7144 19.9146L22.2263 20.1272C21.664 20.2095 21.4309 20.9089 21.8492 21.3135L22.9189 22.3626L22.6652 23.8369C22.5692 24.4061 23.1658 24.8381 23.6664 24.5706L24.9967 23.8712L26.3201 24.5706C26.8344 24.8381 27.4241 24.4061 27.3281 23.8369L27.0812 22.3626ZM31.5109 21.5878C32.8892 21.2723 33.9178 20.0449 33.9178 18.5843V17.8918C33.9178 17.5146 33.6092 17.2061 33.232 17.2061H31.5109V21.5878Z" fill="white"/>
<path d="M30.5109 34.2557H31.7656C32.1447 34.2557 32.4514 34.5624 32.4514 34.9414C32.4514 35.3204 32.1447 35.6271 31.7656 35.6271H18.2315C17.8525 35.6271 17.5458 35.3204 17.5458 34.9414C17.5458 34.5624 17.8525 34.2557 18.2315 34.2557H19.486V34.2395C19.486 33.0655 20.4377 32.1138 21.6117 32.1138H28.3852C29.5592 32.1138 30.5109 33.0655 30.5109 34.2395V34.2557Z" fill="white"/>
</svg>
